# This file uses centimeters as units for non-parametric coordinates.

mtllib frame_low.mtl
g default
v 2.072468 1.811903 0.110100
v 1.196540 3.138308 0.110100
v 0.000000 3.623805 0.110100
v -1.196540 3.138308 0.110100
v -2.072468 1.811903 0.110100
v -2.393080 -0.000000 0.110100
v -2.072468 -1.811903 0.110100
v -1.196540 -3.138308 0.110100
v 0.000000 -3.623805 0.110100
v 1.196540 -3.138308 0.110100
v 2.072468 -1.811903 0.110100
v 2.393080 -0.000000 0.110100
v 2.117581 1.851344 0.264698
v 1.222586 3.206622 0.264698
v 0.000000 3.702688 0.264698
v -1.222586 3.206622 0.264698
v -2.117581 1.851344 0.264698
v -2.445172 -0.000000 0.264698
v -2.117581 -1.851344 0.264698
v -1.222586 -3.206622 0.264698
v 0.000000 -3.702688 0.264698
v 1.222586 -3.206622 0.264698
v 2.117581 -1.851344 0.264698
v 2.445172 -0.000000 0.264698
v 2.235689 1.954603 0.360244
v 1.290776 3.385472 0.360244
v 0.000000 3.909205 0.360244
v -1.290776 3.385472 0.360244
v -2.235689 1.954603 0.360244
v -2.581551 -0.000000 0.360244
v -2.235689 -1.954603 0.360244
v -1.290776 -3.385472 0.360244
v 0.000000 -3.909205 0.360244
v 1.290776 -3.385472 0.360244
v 2.235689 -1.954603 0.360244
v 2.581551 -0.000000 0.360244
v 2.381678 2.082238 0.360244
v 1.375063 3.606541 0.360244
v 0.000000 4.164475 0.360244
v -1.375063 3.606541 0.360244
v -2.381678 2.082238 0.360244
v -2.750125 -0.000000 0.360244
v -2.381678 -2.082238 0.360244
v -1.375063 -3.606541 0.360244
v 0.000000 -4.164475 0.360244
v 1.375063 -3.606541 0.360244
v 2.381678 -2.082238 0.360244
v 2.750125 -0.000000 0.360244
v 2.499786 2.185496 0.264698
v 1.443252 3.785390 0.264698
v 0.000000 4.370993 0.264698
v -1.443252 3.785390 0.264698
v -2.499786 2.185496 0.264698
v -2.886505 -0.000000 0.264698
v -2.499786 -2.185496 0.264698
v -1.443252 -3.785390 0.264698
v 0.000000 -4.370993 0.264698
v 1.443252 -3.785390 0.264698
v 2.499786 -2.185496 0.264698
v 2.886505 -0.000000 0.264698
v 2.544899 2.224938 0.110100
v 1.469298 3.853705 0.110100
v 0.000000 4.449875 0.110100
v -1.469298 3.853705 0.110100
v -2.544899 2.224938 0.110100
v -2.938597 -0.000000 0.110100
v -2.544899 -2.224938 0.110100
v -1.469298 -3.853705 0.110100
v 0.000000 -4.449875 0.110100
v 1.469298 -3.853705 0.110100
v 2.544899 -2.224938 0.110100
v 2.938597 -0.000000 0.110100
v 2.499786 2.185496 -0.044497
v 1.443252 3.785390 -0.044497
v 0.000000 4.370993 -0.044497
v -1.443252 3.785390 -0.044497
v -2.499786 2.185496 -0.044497
v -2.886505 0.000000 -0.044497
v -2.499786 -2.185496 -0.044497
v -1.443252 -3.785390 -0.044497
v 0.000000 -4.370993 -0.044497
v 1.443252 -3.785390 -0.044497
v 2.499786 -2.185496 -0.044497
v 2.886505 0.000000 -0.044497
v 2.381678 2.082238 -0.140044
v 1.375063 3.606541 -0.140044
v 0.000000 4.164475 -0.140044
v -1.375063 3.606541 -0.140044
v -2.381678 2.082238 -0.140044
v -2.750125 0.000000 -0.140044
v -2.381678 -2.082238 -0.140044
v -1.375063 -3.606541 -0.140044
v 0.000000 -4.164475 -0.140044
v 1.375063 -3.606541 -0.140044
v 2.381678 -2.082238 -0.140044
v 2.750125 0.000000 -0.140044
v 2.117581 1.851344 -0.044497
v 1.222586 3.206622 -0.044497
v 0.000000 3.702688 -0.044497
v -1.222586 3.206622 -0.044497
v -2.117581 1.851344 -0.044497
v -2.445172 0.000000 -0.044497
v -2.117581 -1.851344 -0.044497
v -1.222586 -3.206622 -0.044497
v 0.000000 -3.702688 -0.044497
v 1.222586 -3.206622 -0.044497
v 2.117581 -1.851344 -0.044497
v 2.445172 0.000000 -0.044497
vt 0.062005 0.627838
vt 0.108453 0.568500
vt 0.183115 0.558302
vt 0.265985 0.599977
vt 0.334860 0.682358
vt 0.371283 0.783372
vt 0.365495 0.875951
vt 0.319048 0.935289
vt 0.244386 0.945487
vt 0.161515 0.903812
vt 0.092641 0.821430
vt 0.056218 0.720417
vt 0.863804 0.054272
vt 0.927123 0.121057
vt 0.963681 0.221123
vt 0.963681 0.327659
vt 0.927123 0.412117
vt 0.863804 0.451867
vt 0.790688 0.436259
vt 0.727368 0.369474
vt 0.690811 0.269407
vt 0.690811 0.162872
vt 0.727368 0.078414
vt 0.790688 0.038663
vt 0.558648 0.790360
vt 0.469844 0.692026
vt 0.480356 0.682533
vt 0.577295 0.789877
vt 0.957156 0.685387
vt 0.529635 0.972537
vt 0.869583 0.588415
vt 0.859377 0.597632
vt 0.763284 0.470707
vt 0.753078 0.479924
vt 0.639714 0.333875
vt 0.629509 0.343092
vt 0.531563 0.214116
vt 0.521357 0.223333
vt 0.438908 0.111518
vt 0.421814 0.113106
vt 0.051551 0.228839
vt 0.348268 0.031668
vt 0.139615 0.326355
vt 0.150126 0.316862
vt 0.247006 0.445271
vt 0.257517 0.435779
vt 0.367151 0.578311
vt 0.377662 0.568818
vt 0.502322 0.683567
vt 0.598461 0.790024
vt 0.549658 0.977681
vt 0.847950 0.607951
vt 0.741651 0.490243
vt 0.618082 0.353412
vt 0.501256 0.224048
vt 0.401626 0.113725
vt 0.326032 0.030018
vt 0.161712 0.306400
vt 0.269102 0.425316
vt 0.389247 0.558356
vt 0.522239 0.681100
vt 0.621404 0.790908
vt 0.572346 0.984255
vt 0.835624 0.619083
vt 0.729324 0.501375
vt 0.605755 0.364543
vt 0.482050 0.227562
vt 0.379404 0.113898
vt 0.301057 0.027144
vt 0.173909 0.295385
vt 0.281299 0.414301
vt 0.401444 0.547341
vt 0.544245 0.682342
vt 0.641901 0.790479
vt 0.593220 0.988832
vt 0.823920 0.629652
vt 0.717621 0.511944
vt 0.594051 0.375113
vt 0.461813 0.228682
vt 0.355372 0.110817
vt 0.278506 0.025702
vt 0.185412 0.284997
vt 0.292802 0.403913
vt 0.412947 0.536953
vt 0.554853 0.672763
vt 0.660979 0.790279
vt 0.613317 0.993130
vt 0.813501 0.639061
vt 0.707202 0.521354
vt 0.583632 0.384522
vt 0.451394 0.238091
vt 0.344952 0.120226
vt 0.258800 0.024828
vt 0.196020 0.275417
vt 0.303410 0.394334
vt 0.423555 0.527373
vt 0.566054 0.662648
vt 0.672180 0.780164
vt 0.624553 0.982983
vt 0.802145 0.649316
vt 0.695846 0.531609
vt 0.572277 0.394777
vt 0.440038 0.248346
vt 0.333597 0.130481
vt 0.247445 0.035083
vt 0.207220 0.265302
vt 0.314611 0.384218
vt 0.434756 0.517258
vt 0.579933 0.650114
vt 0.686060 0.767630
vt 0.875437 0.759186
vt 0.787864 0.662214
vt 0.681564 0.544506
vt 0.557995 0.407675
vt 0.425756 0.261244
vt 0.319315 0.143379
vt 0.133036 0.155252
vt 0.221100 0.252768
vt 0.328490 0.371684
vt 0.448635 0.504724
vt 0.547617 0.800323
vt 0.458813 0.701988
vt 0.501082 0.979157
vt 0.880905 0.578190
vt 0.774606 0.460483
vt 0.651036 0.323651
vt 0.542884 0.203892
vt 0.450230 0.101293
vt 0.378172 0.021501
vt 0.128584 0.336317
vt 0.235974 0.455233
vt 0.356119 0.588273
vt 0.968478 0.675162
vt 0.511909 0.969379
vt 0.889719 0.746288
vt 0.640078 0.968962
vt 0.901074 0.736033
vt 0.911493 0.726624
vt 0.923197 0.716055
vt 0.935524 0.704923
vt 0.946951 0.694604
vt 0.040519 0.238801
vt 0.366850 0.031726
vt 0.119156 0.167786
vt 0.233163 0.047980
vt 0.107955 0.177902
vt 0.097348 0.187481
vt 0.085845 0.197869
vt 0.073647 0.208884
vt 0.062062 0.219347
vn -0.778980 -0.514421 0.358554
vn -0.778980 -0.514421 0.358554
vn -0.778980 -0.514421 0.358554
vn -0.778980 -0.514421 0.358555
vn -0.339903 -0.837713 0.427438
vn -0.339903 -0.837713 0.427438
vn -0.339903 -0.837713 0.427438
vn -0.339903 -0.837713 0.427438
vn 0.339903 -0.837713 0.427438
vn 0.339903 -0.837713 0.427438
vn 0.339903 -0.837713 0.427438
vn 0.339903 -0.837713 0.427438
vn 0.778980 -0.514421 0.358554
vn 0.778980 -0.514421 0.358554
vn 0.778980 -0.514421 0.358554
vn 0.778980 -0.514421 0.358554
vn 0.934601 -0.165375 0.314917
vn 0.934601 -0.165375 0.314917
vn 0.934601 -0.165375 0.314917
vn 0.934601 -0.165375 0.314917
vn 0.934601 0.165375 0.314917
vn 0.934601 0.165375 0.314917
vn 0.934601 0.165375 0.314917
vn 0.934601 0.165375 0.314917
vn 0.778980 0.514421 0.358554
vn 0.778980 0.514421 0.358554
vn 0.778980 0.514421 0.358554
vn 0.778980 0.514421 0.358555
vn 0.339903 0.837713 0.427438
vn 0.339903 0.837713 0.427438
vn 0.339903 0.837713 0.427438
vn 0.339903 0.837713 0.427438
vn -0.339903 0.837713 0.427438
vn -0.339903 0.837713 0.427438
vn -0.339903 0.837713 0.427438
vn -0.339903 0.837713 0.427438
vn -0.778980 0.514421 0.358554
vn -0.778980 0.514421 0.358554
vn -0.778980 0.514421 0.358554
vn -0.778980 0.514421 0.358554
vn -0.934601 0.165375 0.314917
vn -0.934601 0.165375 0.314917
vn -0.934601 0.165375 0.314917
vn -0.934601 0.165375 0.314917
vn -0.934601 -0.165375 0.314917
vn -0.934601 -0.165375 0.314917
vn -0.934601 -0.165375 0.314917
vn -0.934601 -0.165375 0.314917
vn -0.436942 -0.288546 0.851952
vn -0.436942 -0.288546 0.851952
vn -0.436942 -0.288546 0.851952
vn -0.436942 -0.288546 0.851952
vn -0.167953 -0.413930 0.894681
vn -0.167953 -0.413930 0.894681
vn -0.167953 -0.413930 0.894681
vn -0.167953 -0.413930 0.894681
vn 0.167953 -0.413930 0.894681
vn 0.167953 -0.413930 0.894681
vn 0.167953 -0.413930 0.894681
vn 0.167953 -0.413930 0.894681
vn 0.436942 -0.288546 0.851952
vn 0.436942 -0.288546 0.851952
vn 0.436942 -0.288546 0.851952
vn 0.436942 -0.288546 0.851952
vn 0.570854 -0.101011 0.814814
vn 0.570854 -0.101011 0.814814
vn 0.570854 -0.101011 0.814815
vn 0.570854 -0.101011 0.814815
vn 0.570854 0.101011 0.814814
vn 0.570854 0.101011 0.814814
vn 0.570854 0.101011 0.814814
vn 0.570854 0.101011 0.814814
vn 0.436942 0.288546 0.851952
vn 0.436942 0.288546 0.851952
vn 0.436942 0.288546 0.851952
vn 0.436942 0.288546 0.851952
vn 0.167953 0.413930 0.894681
vn 0.167953 0.413930 0.894681
vn 0.167953 0.413930 0.894681
vn 0.167953 0.413930 0.894681
vn -0.167953 0.413930 0.894681
vn -0.167953 0.413930 0.894681
vn -0.167953 0.413930 0.894681
vn -0.167953 0.413930 0.894681
vn -0.436942 0.288546 0.851952
vn -0.436942 0.288546 0.851952
vn -0.436942 0.288546 0.851952
vn -0.436942 0.288546 0.851952
vn -0.570854 0.101011 0.814814
vn -0.570854 0.101011 0.814814
vn -0.570854 0.101011 0.814815
vn -0.570854 0.101011 0.814815
vn -0.570854 -0.101011 0.814814
vn -0.570854 -0.101011 0.814814
vn -0.570854 -0.101011 0.814814
vn -0.570854 -0.101011 0.814814
vn -0.000000 -0.000000 1.000000
vn -0.000000 -0.000000 1.000000
vn -0.000000 -0.000000 1.000000
vn -0.000000 -0.000000 1.000000
vn -0.000000 -0.000000 1.000000
vn -0.000000 -0.000000 1.000000
vn -0.000000 -0.000000 1.000000
vn -0.000000 -0.000000 1.000000
vn 0.000000 -0.000000 1.000000
vn 0.000000 -0.000000 1.000000
vn 0.000000 -0.000000 1.000000
vn 0.000000 -0.000000 1.000000
vn 0.000000 -0.000000 1.000000
vn 0.000000 -0.000000 1.000000
vn 0.000000 -0.000000 1.000000
vn 0.000000 -0.000000 1.000000
vn 0.000000 -0.000000 1.000000
vn 0.000000 -0.000000 1.000000
vn 0.000000 -0.000000 1.000000
vn 0.000000 -0.000000 1.000000
vn 0.000000 0.000000 1.000000
vn 0.000000 0.000000 1.000000
vn 0.000000 0.000000 1.000000
vn 0.000000 0.000000 1.000000
vn 0.000000 0.000000 1.000000
vn 0.000000 0.000000 1.000000
vn 0.000000 0.000000 1.000000
vn 0.000000 0.000000 1.000000
vn 0.000000 0.000000 1.000000
vn 0.000000 0.000000 1.000000
vn 0.000000 0.000000 1.000000
vn 0.000000 0.000000 1.000000
vn -0.000000 0.000000 1.000000
vn -0.000000 0.000000 1.000000
vn -0.000000 0.000000 1.000000
vn -0.000000 0.000000 1.000000
vn -0.000000 0.000000 1.000000
vn -0.000000 0.000000 1.000000
vn -0.000000 0.000000 1.000000
vn -0.000000 0.000000 1.000000
vn -0.000000 0.000000 1.000000
vn -0.000000 0.000000 1.000000
vn -0.000000 0.000000 1.000000
vn -0.000000 0.000000 1.000000
vn -0.000000 -0.000000 1.000000
vn -0.000000 -0.000000 1.000000
vn -0.000000 -0.000000 1.000000
vn -0.000000 -0.000000 1.000000
vn 0.436942 0.288547 0.851952
vn 0.436942 0.288547 0.851952
vn 0.436942 0.288547 0.851952
vn 0.436942 0.288547 0.851952
vn 0.167953 0.413931 0.894680
vn 0.167953 0.413931 0.894680
vn 0.167953 0.413931 0.894680
vn 0.167953 0.413931 0.894680
vn -0.167953 0.413931 0.894680
vn -0.167953 0.413931 0.894680
vn -0.167953 0.413931 0.894680
vn -0.167953 0.413931 0.894680
vn -0.436942 0.288547 0.851952
vn -0.436942 0.288547 0.851952
vn -0.436942 0.288547 0.851952
vn -0.436942 0.288547 0.851952
vn -0.570854 0.101011 0.814814
vn -0.570854 0.101011 0.814814
vn -0.570854 0.101011 0.814814
vn -0.570854 0.101011 0.814814
vn -0.570854 -0.101011 0.814814
vn -0.570854 -0.101011 0.814814
vn -0.570854 -0.101011 0.814814
vn -0.570854 -0.101011 0.814814
vn -0.436942 -0.288547 0.851952
vn -0.436942 -0.288547 0.851952
vn -0.436942 -0.288547 0.851952
vn -0.436942 -0.288547 0.851952
vn -0.167953 -0.413931 0.894680
vn -0.167953 -0.413931 0.894680
vn -0.167953 -0.413931 0.894680
vn -0.167953 -0.413931 0.894680
vn 0.167953 -0.413931 0.894680
vn 0.167953 -0.413931 0.894680
vn 0.167953 -0.413931 0.894680
vn 0.167953 -0.413931 0.894680
vn 0.436942 -0.288547 0.851952
vn 0.436942 -0.288547 0.851952
vn 0.436942 -0.288547 0.851952
vn 0.436942 -0.288547 0.851952
vn 0.570854 -0.101011 0.814814
vn 0.570854 -0.101011 0.814814
vn 0.570854 -0.101011 0.814814
vn 0.570854 -0.101011 0.814814
vn 0.570854 0.101011 0.814814
vn 0.570854 0.101011 0.814814
vn 0.570854 0.101011 0.814814
vn 0.570854 0.101011 0.814814
vn 0.778980 0.514421 0.358556
vn 0.778979 0.514421 0.358556
vn 0.778980 0.514421 0.358556
vn 0.778979 0.514421 0.358556
vn 0.339903 0.837712 0.427439
vn 0.339903 0.837712 0.427439
vn 0.339903 0.837712 0.427439
vn 0.339903 0.837712 0.427439
vn -0.339903 0.837712 0.427439
vn -0.339903 0.837712 0.427439
vn -0.339903 0.837712 0.427439
vn -0.339903 0.837712 0.427439
vn -0.778980 0.514421 0.358556
vn -0.778980 0.514421 0.358556
vn -0.778980 0.514421 0.358556
vn -0.778980 0.514421 0.358556
vn -0.934601 0.165375 0.314915
vn -0.934601 0.165375 0.314915
vn -0.934601 0.165375 0.314915
vn -0.934601 0.165375 0.314915
vn -0.934601 -0.165375 0.314916
vn -0.934601 -0.165375 0.314916
vn -0.934601 -0.165375 0.314916
vn -0.934601 -0.165375 0.314916
vn -0.778980 -0.514421 0.358556
vn -0.778979 -0.514421 0.358556
vn -0.778980 -0.514421 0.358556
vn -0.778979 -0.514421 0.358556
vn -0.339903 -0.837712 0.427439
vn -0.339903 -0.837712 0.427439
vn -0.339903 -0.837712 0.427439
vn -0.339903 -0.837712 0.427439
vn 0.339903 -0.837712 0.427439
vn 0.339903 -0.837712 0.427439
vn 0.339903 -0.837712 0.427439
vn 0.339903 -0.837712 0.427439
vn 0.778980 -0.514421 0.358556
vn 0.778980 -0.514421 0.358556
vn 0.778980 -0.514421 0.358556
vn 0.778980 -0.514421 0.358556
vn 0.934601 -0.165375 0.314915
vn 0.934601 -0.165375 0.314915
vn 0.934601 -0.165375 0.314915
vn 0.934601 -0.165375 0.314915
vn 0.934601 0.165375 0.314916
vn 0.934601 0.165375 0.314916
vn 0.934601 0.165375 0.314916
vn 0.934601 0.165375 0.314916
vn 0.778980 0.514421 -0.358556
vn 0.778980 0.514421 -0.358556
vn 0.778979 0.514421 -0.358556
vn 0.778980 0.514421 -0.358556
vn 0.339903 0.837712 -0.427439
vn 0.339903 0.837712 -0.427439
vn 0.339903 0.837712 -0.427439
vn 0.339903 0.837712 -0.427439
vn -0.339903 0.837712 -0.427439
vn -0.339903 0.837712 -0.427439
vn -0.339903 0.837712 -0.427439
vn -0.339903 0.837712 -0.427439
vn -0.778980 0.514421 -0.358556
vn -0.778980 0.514421 -0.358556
vn -0.778980 0.514421 -0.358556
vn -0.778980 0.514421 -0.358556
vn -0.934601 0.165375 -0.314917
vn -0.934601 0.165375 -0.314917
vn -0.934601 0.165375 -0.314917
vn -0.934601 0.165375 -0.314917
vn -0.934601 -0.165375 -0.314916
vn -0.934601 -0.165375 -0.314916
vn -0.934601 -0.165375 -0.314916
vn -0.934601 -0.165375 -0.314916
vn -0.778980 -0.514421 -0.358556
vn -0.778980 -0.514421 -0.358556
vn -0.778979 -0.514421 -0.358556
vn -0.778980 -0.514421 -0.358556
vn -0.339903 -0.837712 -0.427439
vn -0.339903 -0.837712 -0.427439
vn -0.339903 -0.837712 -0.427439
vn -0.339903 -0.837712 -0.427439
vn 0.339903 -0.837712 -0.427439
vn 0.339903 -0.837712 -0.427439
vn 0.339903 -0.837712 -0.427439
vn 0.339903 -0.837712 -0.427439
vn 0.778980 -0.514421 -0.358556
vn 0.778980 -0.514421 -0.358556
vn 0.778980 -0.514421 -0.358556
vn 0.778980 -0.514421 -0.358556
vn 0.934601 -0.165375 -0.314917
vn 0.934601 -0.165375 -0.314917
vn 0.934601 -0.165375 -0.314917
vn 0.934601 -0.165375 -0.314917
vn 0.934601 0.165375 -0.314916
vn 0.934601 0.165375 -0.314916
vn 0.934601 0.165375 -0.314916
vn 0.934601 0.165375 -0.314916
vn 0.436942 0.288547 -0.851952
vn 0.436942 0.288547 -0.851952
vn 0.436942 0.288547 -0.851952
vn 0.436942 0.288547 -0.851952
vn 0.167953 0.413931 -0.894680
vn 0.167953 0.413931 -0.894680
vn 0.167953 0.413931 -0.894681
vn 0.167953 0.413931 -0.894681
vn -0.167953 0.413931 -0.894680
vn -0.167953 0.413931 -0.894680
vn -0.167953 0.413931 -0.894681
vn -0.167953 0.413931 -0.894681
vn -0.436942 0.288547 -0.851952
vn -0.436942 0.288547 -0.851952
vn -0.436942 0.288547 -0.851952
vn -0.436942 0.288547 -0.851952
vn -0.570854 0.101011 -0.814814
vn -0.570854 0.101011 -0.814814
vn -0.570854 0.101011 -0.814814
vn -0.570854 0.101011 -0.814814
vn -0.570854 -0.101011 -0.814814
vn -0.570854 -0.101011 -0.814814
vn -0.570854 -0.101011 -0.814814
vn -0.570854 -0.101011 -0.814814
vn -0.436942 -0.288547 -0.851952
vn -0.436942 -0.288547 -0.851952
vn -0.436942 -0.288547 -0.851952
vn -0.436942 -0.288547 -0.851952
vn -0.167953 -0.413931 -0.894680
vn -0.167953 -0.413931 -0.894680
vn -0.167953 -0.413931 -0.894681
vn -0.167953 -0.413931 -0.894681
vn 0.167953 -0.413931 -0.894680
vn 0.167953 -0.413931 -0.894680
vn 0.167953 -0.413931 -0.894681
vn 0.167953 -0.413931 -0.894681
vn 0.436942 -0.288547 -0.851952
vn 0.436942 -0.288547 -0.851952
vn 0.436942 -0.288547 -0.851952
vn 0.436942 -0.288547 -0.851952
vn 0.570854 -0.101011 -0.814814
vn 0.570854 -0.101011 -0.814814
vn 0.570854 -0.101011 -0.814814
vn 0.570854 -0.101011 -0.814814
vn 0.570854 0.101011 -0.814814
vn 0.570854 0.101011 -0.814814
vn 0.570854 0.101011 -0.814814
vn 0.570854 0.101011 -0.814814
vn -0.778980 -0.514421 -0.358555
vn -0.778980 -0.514421 -0.358555
vn -0.778980 -0.514421 -0.358554
vn -0.778980 -0.514421 -0.358554
vn -0.339903 -0.837713 -0.427438
vn -0.339903 -0.837713 -0.427438
vn -0.339903 -0.837713 -0.427438
vn -0.339903 -0.837713 -0.427438
vn 0.339903 -0.837713 -0.427438
vn 0.339903 -0.837713 -0.427438
vn 0.339903 -0.837713 -0.427438
vn 0.339903 -0.837713 -0.427438
vn 0.778980 -0.514421 -0.358554
vn 0.778980 -0.514421 -0.358554
vn 0.778980 -0.514421 -0.358554
vn 0.778980 -0.514421 -0.358554
vn 0.934601 -0.165375 -0.314916
vn 0.934601 -0.165375 -0.314916
vn 0.934601 -0.165375 -0.314916
vn 0.934601 -0.165375 -0.314916
vn 0.934601 0.165375 -0.314917
vn 0.934601 0.165375 -0.314917
vn 0.934601 0.165375 -0.314917
vn 0.934601 0.165375 -0.314917
vn 0.778980 0.514421 -0.358555
vn 0.778980 0.514421 -0.358555
vn 0.778980 0.514421 -0.358554
vn 0.778980 0.514421 -0.358554
vn 0.339903 0.837713 -0.427438
vn 0.339903 0.837713 -0.427438
vn 0.339903 0.837713 -0.427438
vn 0.339903 0.837713 -0.427438
vn -0.339903 0.837713 -0.427438
vn -0.339903 0.837713 -0.427438
vn -0.339903 0.837713 -0.427438
vn -0.339903 0.837713 -0.427438
vn -0.778980 0.514421 -0.358554
vn -0.778980 0.514421 -0.358554
vn -0.778980 0.514421 -0.358554
vn -0.778980 0.514421 -0.358554
vn -0.934601 0.165375 -0.314916
vn -0.934601 0.165375 -0.314916
vn -0.934601 0.165375 -0.314916
vn -0.934601 0.165375 -0.314916
vn -0.934601 -0.165375 -0.314917
vn -0.934601 -0.165375 -0.314917
vn -0.934601 -0.165375 -0.314917
vn -0.934601 -0.165375 -0.314917
vn 0.000000 0.000000 -1.000000
vn 0.000000 0.000000 -1.000000
vn 0.000000 0.000000 -1.000000
vn 0.000000 0.000000 -1.000000
vn 0.000000 0.000000 -1.000000
vn 0.000000 0.000000 -1.000000
vn 0.000000 0.000000 -1.000000
vn 0.000000 0.000000 -1.000000
vn 0.000000 0.000000 -1.000000
vn 0.000000 0.000000 -1.000000
vn 0.000000 0.000000 -1.000000
vn 0.000000 0.000000 -1.000000
vn 0.000000 -0.000000 1.000000
vn 0.000000 -0.000000 1.000000
vn 0.000000 -0.000000 1.000000
vn 0.000000 -0.000000 1.000000
vn 0.000000 -0.000000 1.000000
vn 0.000000 -0.000000 1.000000
vn 0.000000 -0.000000 1.000000
vn 0.000000 -0.000000 1.000000
vn 0.000000 -0.000000 1.000000
vn 0.000000 -0.000000 1.000000
vn 0.000000 -0.000000 1.000000
vn 0.000000 -0.000000 1.000000
s off
g frame_low
usemtl initialShadingGroup
f 2/25/1 1/26/2 13/27/3 14/28/4
f 3/134/5 2/25/6 14/28/7 15/30/8
f 4/31/9 3/29/10 15/141/11 16/32/12
f 5/33/13 4/31/14 16/32/15 17/34/16
f 6/35/17 5/33/18 17/34/19 18/36/20
f 7/37/21 6/35/22 18/36/23 19/38/24
f 8/39/25 7/37/26 19/38/27 20/40/28
f 9/143/29 8/39/30 20/40/31 21/42/32
f 10/43/33 9/41/34 21/150/35 22/44/36
f 11/45/37 10/43/38 22/44/39 23/46/40
f 12/47/41 11/45/42 23/46/43 24/48/44
f 1/26/45 12/47/46 24/48/47 13/27/48
f 14/28/49 13/27/50 25/49/51 26/50/52
f 15/30/53 14/28/54 26/50/55 27/51/56
f 16/32/57 15/141/58 27/140/59 28/52/60
f 17/34/61 16/32/62 28/52/63 29/53/64
f 18/36/65 17/34/66 29/53/67 30/54/68
f 19/38/69 18/36/70 30/54/71 31/55/72
f 20/40/73 19/38/74 31/55/75 32/56/76
f 21/42/77 20/40/78 32/56/79 33/57/80
f 22/44/81 21/150/82 33/149/83 34/58/84
f 23/46/85 22/44/86 34/58/87 35/59/88
f 24/48/89 23/46/90 35/59/91 36/60/92
f 13/27/93 24/48/94 36/60/95 25/49/96
f 26/50/97 25/49/98 37/61/99 38/62/100
f 27/51/101 26/50/102 38/62/103 39/63/104
f 28/52/105 27/140/106 39/139/107 40/64/108
f 29/53/109 28/52/110 40/64/111 41/65/112
f 30/54/113 29/53/114 41/65/115 42/66/116
f 31/55/117 30/54/118 42/66/119 43/67/120
f 32/56/121 31/55/122 43/67/123 44/68/124
f 33/57/125 32/56/126 44/68/127 45/69/128
f 34/58/129 33/149/130 45/148/131 46/70/132
f 35/59/133 34/58/134 46/70/135 47/71/136
f 36/60/137 35/59/138 47/71/139 48/72/140
f 25/49/141 36/60/142 48/72/143 37/61/144
f 38/62/145 37/61/146 49/73/147 50/74/148
f 39/63/149 38/62/150 50/74/151 51/75/152
f 40/64/153 39/139/154 51/138/155 52/76/156
f 41/65/157 40/64/158 52/76/159 53/77/160
f 42/66/161 41/65/162 53/77/163 54/78/164
f 43/67/165 42/66/166 54/78/167 55/79/168
f 44/68/169 43/67/170 55/79/171 56/80/172
f 45/69/173 44/68/174 56/80/175 57/81/176
f 46/70/177 45/148/178 57/147/179 58/82/180
f 47/71/181 46/70/182 58/82/183 59/83/184
f 48/72/185 47/71/186 59/83/187 60/84/188
f 37/61/189 48/72/190 60/84/191 49/73/192
f 50/74/193 49/73/194 61/85/195 62/86/196
f 51/75/197 50/74/198 62/86/199 63/87/200
f 52/76/201 51/138/202 63/137/203 64/88/204
f 53/77/205 52/76/206 64/88/207 65/89/208
f 54/78/209 53/77/210 65/89/211 66/90/212
f 55/79/213 54/78/214 66/90/215 67/91/216
f 56/80/217 55/79/218 67/91/219 68/92/220
f 57/81/221 56/80/222 68/92/223 69/93/224
f 58/82/225 57/147/226 69/146/227 70/94/228
f 59/83/229 58/82/230 70/94/231 71/95/232
f 60/84/233 59/83/234 71/95/235 72/96/236
f 49/73/237 60/84/238 72/96/239 61/85/240
f 62/86/241 61/85/242 73/97/243 74/98/244
f 63/87/245 62/86/246 74/98/247 75/99/248
f 64/88/249 63/137/250 75/135/251 76/100/252
f 65/89/253 64/88/254 76/100/255 77/101/256
f 66/90/257 65/89/258 77/101/259 78/102/260
f 67/91/261 66/90/262 78/102/263 79/103/264
f 68/92/265 67/91/266 79/103/267 80/104/268
f 69/93/269 68/92/270 80/104/271 81/105/272
f 70/94/273 69/146/274 81/144/275 82/106/276
f 71/95/277 70/94/278 82/106/279 83/107/280
f 72/96/281 71/95/282 83/107/283 84/108/284
f 61/85/285 72/96/286 84/108/287 73/97/288
f 74/98/289 73/97/290 85/109/291 86/110/292
f 75/99/293 74/98/294 86/110/295 87/136/296
f 76/100/297 75/135/298 87/111/299 88/112/300
f 77/101/301 76/100/302 88/112/303 89/113/304
f 78/102/305 77/101/306 89/113/307 90/114/308
f 79/103/309 78/102/310 90/114/311 91/115/312
f 80/104/313 79/103/314 91/115/315 92/116/316
f 81/105/317 80/104/318 92/116/319 93/145/320
f 82/106/321 81/144/322 93/117/323 94/118/324
f 83/107/325 82/106/326 94/118/327 95/119/328
f 84/108/329 83/107/330 95/119/331 96/120/332
f 73/97/333 84/108/334 96/120/335 85/109/336
f 98/121/337 97/122/338 1/26/339 2/25/340
f 99/123/341 98/121/342 2/25/343 3/134/344
f 100/124/345 99/133/346 3/29/347 4/31/348
f 101/125/349 100/124/350 4/31/351 5/33/352
f 102/126/353 101/125/354 5/33/355 6/35/356
f 103/127/357 102/126/358 6/35/359 7/37/360
f 104/128/361 103/127/362 7/37/363 8/39/364
f 105/129/365 104/128/366 8/39/367 9/143/368
f 106/130/369 105/142/370 9/41/371 10/43/372
f 107/131/373 106/130/374 10/43/375 11/45/376
f 108/132/377 107/131/378 11/45/379 12/47/380
f 97/122/381 108/132/382 12/47/383 1/26/384
f 86/13/385 85/14/386 96/15/387 95/16/388 94/17/389 93/18/390 92/19/391 91/20/392 90/21/393 89/22/394 88/23/395 87/24/396
f 98/1/397 99/2/398 100/3/399 101/4/400 102/5/401 103/6/402 104/7/403 105/8/404 106/9/405 107/10/406 108/11/407 97/12/408
